<svg width="24" height="24" viewBox="0 0 24 24" fill="none" xmlns="http://www.w3.org/2000/svg">
<g id="carbon:progress-bar">
<path id="Vector" d="M20.9513 15.3738H3.28105C2.89064 15.3734 2.51632 15.2213 2.24025 14.9507C1.96419 14.6802 1.80892 14.3133 1.80853 13.9307V9.60137C1.80892 9.21875 1.96419 8.85192 2.24025 8.58136C2.51632 8.31081 2.89064 8.15865 3.28105 8.15826H20.9513C21.3417 8.15865 21.716 8.31081 21.9921 8.58136C22.2682 8.85192 22.4234 9.21875 22.4238 9.60137V13.9307C22.4234 14.3133 22.2682 14.6802 21.9921 14.9507C21.716 15.2213 21.3417 15.3734 20.9513 15.3738ZM3.28105 9.60137V13.9307H20.9513V9.60137H3.28105Z" fill="black"/>
<path id="Vector_2" d="M4.75354 11.0444H15.0612V12.4875H4.75354V11.0444Z" fill="black"/>
</g>
</svg>
