<svg width="24" height="24" viewBox="0 0 24 24" fill="none" xmlns="http://www.w3.org/2000/svg">
<g id="basil:university-outline">
<path id="Vector" fill-rule="evenodd" clip-rule="evenodd" d="M11.7353 3.19065C11.9738 3.1233 12.2261 3.1233 12.4647 3.19065C12.9732 3.33207 13.4856 3.46291 14 3.59472C16.4159 4.2114 18.8691 4.83868 21.0524 6.58099L22.0576 7.38336C22.465 7.70854 22.6692 8.1915 22.6692 8.67253V15.407C22.6692 15.5984 22.5917 15.7819 22.4536 15.9173C22.3155 16.0526 22.1282 16.1286 21.933 16.1286C21.7377 16.1286 21.5504 16.0526 21.4124 15.9173C21.2743 15.7819 21.1967 15.5984 21.1967 15.407V10.6515L21.0367 10.7795C20.3138 11.3545 19.5235 11.8432 18.6826 12.2351C18.7219 12.3226 18.7425 12.4188 18.7425 12.5208V16.652C18.7425 17.1846 18.5784 17.7049 18.2717 18.1447C17.965 18.5845 17.53 18.9233 17.0236 19.1168L13.0969 20.6176C12.4662 20.8586 11.7661 20.8586 11.1355 20.6176L7.20875 19.1168C6.70234 18.9233 6.26734 18.5845 5.96064 18.1447C5.65395 17.7049 5.48985 17.1846 5.48983 16.652V12.5208C5.48983 12.4169 5.51241 12.3178 5.55266 12.2284C4.73786 11.8445 3.9427 11.3721 3.17993 10.7641L2.17469 9.96171C1.3599 9.31039 1.3599 8.03468 2.17469 7.38336L3.19564 6.56559C5.36221 4.83386 7.79874 4.20948 10.196 3.59568C10.7106 3.46616 11.2237 3.33114 11.7353 3.19065ZM21.1967 8.67349C21.1967 8.58691 21.1614 8.52918 21.128 8.50225L20.1227 7.69988C18.0062 6.26735 16.1195 5.63527 13.7261 5.01858C13.1829 4.88059 12.641 4.73756 12.1005 4.5895C11.5409 4.74439 10.9971 4.88485 10.4689 5.02147C8.09324 5.63335 6.02288 6.1673 4.12726 7.68448L3.10435 8.50128C3.07097 8.52822 3.03563 8.58498 3.03563 8.67157C3.03563 8.75816 3.07097 8.81588 3.10435 8.84282L4.11057 9.64519C6.02288 11.172 8.1119 11.7098 10.5062 12.3265C11.0334 12.4612 11.5743 12.6016 12.1319 12.7556C12.6914 12.6007 13.2353 12.4602 13.7634 12.3236C16.1391 11.7117 18.2095 11.1778 20.1051 9.66058L21.127 8.84378C21.1614 8.81684 21.1967 8.76008 21.1967 8.67349ZM14.0363 13.7494C15.1162 13.4733 16.2029 13.1943 17.27 12.8143V16.652C17.27 17.1474 16.9598 17.5919 16.4886 17.7728L12.5619 19.2726C12.2752 19.3821 11.9571 19.3821 11.6705 19.2726L7.74376 17.7718C7.51365 17.6839 7.31596 17.53 7.17654 17.3302C7.03713 17.1304 6.96247 16.894 6.96235 16.652V12.8056C8.04121 13.1904 9.1407 13.4713 10.2313 13.7503C10.7467 13.8822 11.2592 14.013 11.7677 14.1544C12.0062 14.2218 12.2585 14.2218 12.4971 14.1544C13.0066 14.012 13.52 13.8812 14.0363 13.7494Z" fill="black"/>
</g>
</svg>
