<svg width="23" height="23" viewBox="0 0 23 23" fill="none" xmlns="http://www.w3.org/2000/svg">
<g id="bxs:chat">
<path id="Vector" d="M3.80434 17.12H5.70658V21.0015L10.5582 17.12H15.2178C16.2669 17.12 17.12 16.2668 17.12 15.2177V7.60878C17.12 6.5597 16.2669 5.70654 15.2178 5.70654H3.80434C2.75525 5.70654 1.9021 6.5597 1.9021 7.60878V15.2177C1.9021 16.2668 2.75525 17.12 3.80434 17.12Z" fill="white"/>
<path id="Vector_2" d="M19.0225 1.9021H7.60903C6.55994 1.9021 5.70679 2.75525 5.70679 3.80434H17.1202C18.1693 3.80434 19.0225 4.65749 19.0225 5.70658V13.3155C20.0715 13.3155 20.9247 12.4624 20.9247 11.4133V3.80434C20.9247 2.75525 20.0715 1.9021 19.0225 1.9021Z" fill="white"/>
</g>
</svg>
