<svg width="24" height="24" viewBox="0 0 24 24" fill="none" xmlns="http://www.w3.org/2000/svg">
<g id="Frame 3">
<g id="Union">
<mask id="path-1-outside-1_305_3530" maskUnits="userSpaceOnUse" x="2.75" y="2.75" width="18" height="18" fill="black">
<rect fill="white" x="2.75" y="2.75" width="18" height="18"/>
<path fill-rule="evenodd" clip-rule="evenodd" d="M15 4.875H18C18.6213 4.875 19.125 5.37868 19.125 6V9C19.125 9.62132 18.6213 10.125 18 10.125H15C14.3787 10.125 13.875 9.62132 13.875 9V6C13.875 5.37868 14.3787 4.875 15 4.875ZM12.75 6C12.75 4.75736 13.7574 3.75 15 3.75H18C19.2426 3.75 20.25 4.75736 20.25 6V9C20.25 10.2426 19.2426 11.25 18 11.25H15C13.7574 11.25 12.75 10.2426 12.75 9V6ZM9 13.875C9.62132 13.875 10.125 14.3787 10.125 15V18C10.125 18.6213 9.62132 19.125 9 19.125H6C5.37868 19.125 4.875 18.6213 4.875 18V15C4.875 14.3787 5.37868 13.875 6 13.875H9ZM3.75 15C3.75 13.7574 4.75736 12.75 6 12.75H9C10.2426 12.75 11.25 13.7574 11.25 15V18C11.25 19.2426 10.2426 20.25 9 20.25H6C4.75736 20.25 3.75 19.2426 3.75 18V15ZM7.5 10.125C8.94975 10.125 10.125 8.94975 10.125 7.5C10.125 6.05025 8.94975 4.875 7.5 4.875C6.05025 4.875 4.875 6.05025 4.875 7.5C4.875 8.94975 6.05025 10.125 7.5 10.125ZM7.5 11.25C9.57107 11.25 11.25 9.57107 11.25 7.5C11.25 5.42893 9.57107 3.75 7.5 3.75C5.42893 3.75 3.75 5.42893 3.75 7.5C3.75 9.57107 5.42893 11.25 7.5 11.25ZM19.125 16.5C19.125 17.9497 17.9497 19.125 16.5 19.125C15.0503 19.125 13.875 17.9497 13.875 16.5C13.875 15.0503 15.0503 13.875 16.5 13.875C17.9497 13.875 19.125 15.0503 19.125 16.5ZM20.25 16.5C20.25 18.5711 18.5711 20.25 16.5 20.25C14.4289 20.25 12.75 18.5711 12.75 16.5C12.75 14.4289 14.4289 12.75 16.5 12.75C18.5711 12.75 20.25 14.4289 20.25 16.5Z"/>
</mask>
<path fill-rule="evenodd" clip-rule="evenodd" d="M15 4.875H18C18.6213 4.875 19.125 5.37868 19.125 6V9C19.125 9.62132 18.6213 10.125 18 10.125H15C14.3787 10.125 13.875 9.62132 13.875 9V6C13.875 5.37868 14.3787 4.875 15 4.875ZM12.75 6C12.75 4.75736 13.7574 3.75 15 3.75H18C19.2426 3.75 20.25 4.75736 20.25 6V9C20.25 10.2426 19.2426 11.25 18 11.25H15C13.7574 11.25 12.75 10.2426 12.75 9V6ZM9 13.875C9.62132 13.875 10.125 14.3787 10.125 15V18C10.125 18.6213 9.62132 19.125 9 19.125H6C5.37868 19.125 4.875 18.6213 4.875 18V15C4.875 14.3787 5.37868 13.875 6 13.875H9ZM3.75 15C3.75 13.7574 4.75736 12.75 6 12.75H9C10.2426 12.75 11.25 13.7574 11.25 15V18C11.25 19.2426 10.2426 20.25 9 20.25H6C4.75736 20.25 3.75 19.2426 3.75 18V15ZM7.5 10.125C8.94975 10.125 10.125 8.94975 10.125 7.5C10.125 6.05025 8.94975 4.875 7.5 4.875C6.05025 4.875 4.875 6.05025 4.875 7.5C4.875 8.94975 6.05025 10.125 7.5 10.125ZM7.5 11.25C9.57107 11.25 11.25 9.57107 11.25 7.5C11.25 5.42893 9.57107 3.75 7.5 3.75C5.42893 3.75 3.75 5.42893 3.75 7.5C3.75 9.57107 5.42893 11.25 7.5 11.25ZM19.125 16.5C19.125 17.9497 17.9497 19.125 16.5 19.125C15.0503 19.125 13.875 17.9497 13.875 16.5C13.875 15.0503 15.0503 13.875 16.5 13.875C17.9497 13.875 19.125 15.0503 19.125 16.5ZM20.25 16.5C20.25 18.5711 18.5711 20.25 16.5 20.25C14.4289 20.25 12.75 18.5711 12.75 16.5C12.75 14.4289 14.4289 12.75 16.5 12.75C18.5711 12.75 20.25 14.4289 20.25 16.5Z" fill="#B8B8B8"/>
<path d="M18 4.65H15V5.1H18V4.65ZM19.35 6C19.35 5.25442 18.7456 4.65 18 4.65V5.1C18.4971 5.1 18.9 5.50294 18.9 6H19.35ZM19.35 9V6H18.9V9H19.35ZM18 10.35C18.7456 10.35 19.35 9.74558 19.35 9H18.9C18.9 9.49706 18.4971 9.9 18 9.9V10.35ZM15 10.35H18V9.9H15V10.35ZM13.65 9C13.65 9.74558 14.2544 10.35 15 10.35V9.9C14.5029 9.9 14.1 9.49706 14.1 9H13.65ZM13.65 6V9H14.1V6H13.65ZM15 4.65C14.2544 4.65 13.65 5.25442 13.65 6H14.1C14.1 5.50294 14.5029 5.1 15 5.1V4.65ZM15 3.525C13.6331 3.525 12.525 4.6331 12.525 6H12.975C12.975 4.88162 13.8816 3.975 15 3.975V3.525ZM18 3.525H15V3.975H18V3.525ZM20.475 6C20.475 4.6331 19.3669 3.525 18 3.525V3.975C19.1184 3.975 20.025 4.88162 20.025 6H20.475ZM20.475 9V6H20.025V9H20.475ZM18 11.475C19.3669 11.475 20.475 10.3669 20.475 9H20.025C20.025 10.1184 19.1184 11.025 18 11.025V11.475ZM15 11.475H18V11.025H15V11.475ZM12.525 9C12.525 10.3669 13.6331 11.475 15 11.475V11.025C13.8816 11.025 12.975 10.1184 12.975 9H12.525ZM12.525 6V9H12.975V6H12.525ZM10.35 15C10.35 14.2544 9.74558 13.65 9 13.65V14.1C9.49706 14.1 9.9 14.5029 9.9 15H10.35ZM10.35 18V15H9.9V18H10.35ZM9 19.35C9.74558 19.35 10.35 18.7456 10.35 18H9.9C9.9 18.4971 9.49706 18.9 9 18.9V19.35ZM6 19.35H9V18.9H6V19.35ZM4.65 18C4.65 18.7456 5.25442 19.35 6 19.35V18.9C5.50294 18.9 5.1 18.4971 5.1 18H4.65ZM4.65 15V18H5.1V15H4.65ZM6 13.65C5.25442 13.65 4.65 14.2544 4.65 15H5.1C5.1 14.5029 5.50294 14.1 6 14.1V13.65ZM9 13.65H6V14.1H9V13.65ZM6 12.525C4.6331 12.525 3.525 13.6331 3.525 15H3.975C3.975 13.8816 4.88162 12.975 6 12.975V12.525ZM9 12.525H6V12.975H9V12.525ZM11.475 15C11.475 13.6331 10.3669 12.525 9 12.525V12.975C10.1184 12.975 11.025 13.8816 11.025 15H11.475ZM11.475 18V15H11.025V18H11.475ZM9 20.475C10.3669 20.475 11.475 19.3669 11.475 18H11.025C11.025 19.1184 10.1184 20.025 9 20.025V20.475ZM6 20.475H9V20.025H6V20.475ZM3.525 18C3.525 19.3669 4.6331 20.475 6 20.475V20.025C4.88162 20.025 3.975 19.1184 3.975 18H3.525ZM3.525 15V18H3.975V15H3.525ZM9.9 7.5C9.9 8.82548 8.82548 9.9 7.5 9.9V10.35C9.07401 10.35 10.35 9.07401 10.35 7.5H9.9ZM7.5 5.1C8.82548 5.1 9.9 6.17452 9.9 7.5H10.35C10.35 5.92599 9.07401 4.65 7.5 4.65V5.1ZM5.1 7.5C5.1 6.17452 6.17452 5.1 7.5 5.1V4.65C5.92599 4.65 4.65 5.92599 4.65 7.5H5.1ZM7.5 9.9C6.17452 9.9 5.1 8.82548 5.1 7.5H4.65C4.65 9.07401 5.92599 10.35 7.5 10.35V9.9ZM11.025 7.5C11.025 9.4468 9.4468 11.025 7.5 11.025V11.475C9.69533 11.475 11.475 9.69533 11.475 7.5H11.025ZM7.5 3.975C9.4468 3.975 11.025 5.5532 11.025 7.5H11.475C11.475 5.30467 9.69533 3.525 7.5 3.525V3.975ZM3.975 7.5C3.975 5.5532 5.5532 3.975 7.5 3.975V3.525C5.30467 3.525 3.525 5.30467 3.525 7.5H3.975ZM7.5 11.025C5.5532 11.025 3.975 9.4468 3.975 7.5H3.525C3.525 9.69533 5.30467 11.475 7.5 11.475V11.025ZM16.5 19.35C18.074 19.35 19.35 18.074 19.35 16.5H18.9C18.9 17.8255 17.8255 18.9 16.5 18.9V19.35ZM13.65 16.5C13.65 18.074 14.926 19.35 16.5 19.35V18.9C15.1745 18.9 14.1 17.8255 14.1 16.5H13.65ZM16.5 13.65C14.926 13.65 13.65 14.926 13.65 16.5H14.1C14.1 15.1745 15.1745 14.1 16.5 14.1V13.65ZM19.35 16.5C19.35 14.926 18.074 13.65 16.5 13.65V14.1C17.8255 14.1 18.9 15.1745 18.9 16.5H19.35ZM16.5 20.475C18.6953 20.475 20.475 18.6953 20.475 16.5H20.025C20.025 18.4468 18.4468 20.025 16.5 20.025V20.475ZM12.525 16.5C12.525 18.6953 14.3047 20.475 16.5 20.475V20.025C14.5532 20.025 12.975 18.4468 12.975 16.5H12.525ZM16.5 12.525C14.3047 12.525 12.525 14.3047 12.525 16.5H12.975C12.975 14.5532 14.5532 12.975 16.5 12.975V12.525ZM20.475 16.5C20.475 14.3047 18.6953 12.525 16.5 12.525V12.975C18.4468 12.975 20.025 14.5532 20.025 16.5H20.475Z" fill="#B8B8B8" mask="url(#path-1-outside-1_305_3530)"/>
</g>
</g>
</svg>
