<svg width="24" height="24" viewBox="0 0 24 24" fill="none" xmlns="http://www.w3.org/2000/svg">
<g id="Frame">
<path id="Vector" d="M15.25 10.9C15.747 10.9 16.15 10.497 16.15 10C16.15 9.50295 15.747 9.1 15.25 9.1H8.75C8.25295 9.1 7.85 9.50295 7.85 10C7.85 10.497 8.25295 10.9 8.75 10.9H15.25Z" fill="#B8B8B8" stroke="#B8B8B8" stroke-width="0.3"/>
<path id="Vector_2" d="M13.25 14.9C13.747 14.9 14.15 14.497 14.15 14C14.15 13.503 13.747 13.1 13.25 13.1H8.75C8.25295 13.1 7.85 13.503 7.85 14C7.85 14.497 8.25295 14.9 8.75 14.9H13.25Z" fill="#B8B8B8" stroke="#B8B8B8" stroke-width="0.3"/>
<path id="Vector_3" d="M10 0.85C8.86301 0.85 7.93216 1.73257 7.85515 2.85H6C4.81259 2.85 3.85 3.81259 3.85 5V20C3.85 21.1874 4.81259 22.15 6 22.15H18C19.1874 22.15 20.15 21.1874 20.15 20V5C20.15 3.81259 19.1874 2.85 18 2.85H16.1448C16.0678 1.73257 15.137 0.85 14 0.85H10ZM14 2.65C14.1933 2.65 14.35 2.80671 14.35 3V4.5C14.35 4.69329 14.1933 4.85 14 4.85H10C9.8067 4.85 9.65 4.6933 9.65 4.5V3C9.65 2.8067 9.8067 2.65 10 2.65H14ZM14 6.65C15.137 6.65 16.0678 5.76743 16.1448 4.65H18C18.1933 4.65 18.35 4.80671 18.35 5V20C18.35 20.1933 18.1933 20.35 18 20.35H6C5.80671 20.35 5.65 20.1933 5.65 20V5C5.65 4.8067 5.8067 4.65 6 4.65H7.85515C7.93216 5.76743 8.86301 6.65 10 6.65H14Z" fill="#B8B8B8" stroke="#B8B8B8" stroke-width="0.3"/>
</g>
</svg>
