<svg width="23" height="24" viewBox="0 0 23 24" fill="none" xmlns="http://www.w3.org/2000/svg">
<g id="Frame" clip-path="url(#clip0_186_398)">
<g id="Vector">
<mask id="path-1-outside-1_186_398" maskUnits="userSpaceOnUse" x="-0.586975" y="4.03143" width="23" height="16" fill="black">
<rect fill="white" x="-0.586975" y="4.03143" width="23" height="16"/>
<path d="M21.5092 7.24534C20.3301 4.55895 17.9898 5.06746 17.9669 5.07358C17.9233 5.08368 17.8829 5.10441 17.8489 5.13419C17.8321 5.14864 16.1572 6.5975 12.848 8.02183C12.69 7.93271 12.5264 7.85772 12.3538 7.81818C12.3033 7.80648 12.2475 7.8102 12.1975 7.82855L9.41013 8.87402C9.29795 8.91602 9.22618 9.02713 9.23416 9.14675C9.23941 9.22603 9.28576 9.28717 9.34547 9.33372C5.82471 10.5229 2.22675 11.4408 2.19256 11.4493C2.17023 11.4546 -0.00205567 12.0065 0.483865 14.5769C0.952773 17.0581 2.20957 18.2548 3.22873 18.5478C3.40843 18.5993 3.58334 18.6243 3.74974 18.6243C4.09504 18.6243 4.39715 18.5113 4.61698 18.3026L6.77455 17.1313C6.69414 18.0202 6.52278 18.6729 6.51853 18.6881C6.48451 18.8141 6.54405 18.9465 6.66101 19.0039C6.69982 19.0231 6.74076 19.0321 6.78116 19.0321C6.8641 19.0321 6.94544 18.9938 6.9986 18.9242C7.01043 18.9081 7.99457 17.6335 10.3148 16.008L9.90668 16.8774C9.8599 16.9762 9.87691 17.0932 9.94975 17.1745C10.0231 17.2564 10.1374 17.2862 10.24 17.2511L12.0763 16.6296L12.7951 18.4526C12.835 18.5536 12.9307 18.6211 13.0396 18.6249C13.0423 18.6249 13.0455 18.6249 13.0482 18.6249C13.1534 18.6249 13.2496 18.5643 13.2943 18.4686L14.5817 15.7253L16.3911 17.4218C16.4427 17.4696 16.5091 17.4951 16.5772 17.4951C16.6144 17.4951 16.6516 17.4877 16.6867 17.4723C16.7867 17.4281 16.8505 17.3292 16.8494 17.2203L16.8303 15.3622L18.7925 15.1607C18.8989 15.15 18.9887 15.0783 19.0227 14.9773C19.0568 14.8763 19.0291 14.7646 18.951 14.6918L16.7733 12.6495C19.2786 11.7928 20.9235 11.7773 20.943 11.7773C21.0068 11.7773 21.069 11.755 21.1179 11.7135C21.1881 11.655 22.8224 10.2382 21.5092 7.24534ZM12.3076 8.36896C12.7972 8.51888 13.3512 9.05212 13.8403 9.84799C14.5564 11.0139 14.9302 12.3898 14.7744 13.2537L12.5059 14.5206C12.5067 14.4969 12.5037 14.4704 12.5042 14.4464C12.5037 14.4404 12.5046 14.4346 12.5037 14.4286C12.5196 13.1879 11.9487 11.5202 11.2634 10.4041C11.0024 9.97983 10.634 9.48222 10.1922 9.16217L12.3076 8.36896ZM3.37919 18.0246C2.5158 17.7764 1.44188 16.7141 1.0187 14.4759C0.649272 12.522 2.09687 12.0416 2.29916 11.9843C3.41005 11.8949 4.32189 12.0471 5.02917 12.4284L2.74175 13.453C2.62851 13.5036 2.56418 13.6237 2.58438 13.746C2.60458 13.8683 2.70506 13.9613 2.82787 13.9725C3.49774 14.0336 4.17931 14.6774 4.52381 15.5748C4.86991 16.477 4.77475 17.3415 4.26862 17.8885C4.08946 18.0826 3.75771 18.1336 3.37919 18.0246ZM6.71258 16.5456L5.15856 17.3893C5.34101 16.792 5.30532 16.0918 5.03206 15.3797C4.72902 14.5908 4.21014 13.9746 3.61577 13.6577L5.56048 12.7865C5.68402 12.8923 5.80065 13.0058 5.90555 13.1319C6.6759 14.0575 6.84233 15.3877 6.81083 16.5153C6.77724 16.5192 6.74381 16.5285 6.71258 16.5456ZM7.24369 17.8386C7.4404 16.5398 7.55417 14.2627 6.32501 12.7848C6.16997 12.5984 5.9932 12.4378 5.80626 12.2893C5.78433 12.2646 5.75908 12.2455 5.7306 12.2304C5.26276 11.8794 4.70317 11.6381 4.04709 11.5152C5.54473 11.1006 7.80557 10.4435 9.9838 9.69112C10.2528 9.91541 10.5307 10.2519 10.7993 10.689C11.4902 11.8141 11.9392 13.2823 11.9558 14.3156C9.52576 15.7326 8.02474 17.0492 7.24369 17.8386ZM13.07 17.6658L12.4878 16.1889C12.4346 16.0544 12.2842 15.9847 12.1476 16.031L10.6707 16.5307L11.1778 15.4499C11.1816 15.4419 11.181 15.4334 11.1839 15.4253C11.413 15.2781 11.6539 15.1291 11.9041 14.9788C11.8889 15.0767 11.9222 15.1768 12.0019 15.2378C12.0503 15.275 12.1087 15.2936 12.1672 15.2936C12.2129 15.2936 12.2587 15.2824 12.3001 15.259L13.4184 14.6346L14.1643 15.3339L13.07 17.6658ZM18.1429 14.6801L16.5278 14.846C16.3879 14.8603 16.2816 14.9789 16.2832 15.1192L16.2986 16.5887L13.9174 14.3559L15.1476 13.6689C15.213 13.6322 15.2608 13.57 15.2789 13.4972C15.3019 13.4049 15.3106 13.3049 15.323 13.2068C15.6237 13.0785 15.9151 12.9624 16.1981 12.8561L18.1429 14.6801ZM20.8314 11.235C20.381 11.2512 18.6389 11.3735 16.1508 12.2903C16.1497 12.2908 16.1486 12.291 16.1475 12.2915C15.8885 12.387 15.62 12.4931 15.3453 12.6066C15.2865 11.5887 14.8324 10.4228 14.3039 9.56303C14.1018 9.23381 13.7719 8.76726 13.358 8.39282C16.2589 7.10797 17.8325 5.85871 18.1503 5.59273C18.4863 5.54036 20.1057 5.4016 21.0106 7.46384C22.0217 9.76877 21.0951 10.9597 20.8314 11.235Z"/>
</mask>
<path d="M21.5092 7.24534C20.3301 4.55895 17.9898 5.06746 17.9669 5.07358C17.9233 5.08368 17.8829 5.10441 17.8489 5.13419C17.8321 5.14864 16.1572 6.5975 12.848 8.02183C12.69 7.93271 12.5264 7.85772 12.3538 7.81818C12.3033 7.80648 12.2475 7.8102 12.1975 7.82855L9.41013 8.87402C9.29795 8.91602 9.22618 9.02713 9.23416 9.14675C9.23941 9.22603 9.28576 9.28717 9.34547 9.33372C5.82471 10.5229 2.22675 11.4408 2.19256 11.4493C2.17023 11.4546 -0.00205567 12.0065 0.483865 14.5769C0.952773 17.0581 2.20957 18.2548 3.22873 18.5478C3.40843 18.5993 3.58334 18.6243 3.74974 18.6243C4.09504 18.6243 4.39715 18.5113 4.61698 18.3026L6.77455 17.1313C6.69414 18.0202 6.52278 18.6729 6.51853 18.6881C6.48451 18.8141 6.54405 18.9465 6.66101 19.0039C6.69982 19.0231 6.74076 19.0321 6.78116 19.0321C6.8641 19.0321 6.94544 18.9938 6.9986 18.9242C7.01043 18.9081 7.99457 17.6335 10.3148 16.008L9.90668 16.8774C9.8599 16.9762 9.87691 17.0932 9.94975 17.1745C10.0231 17.2564 10.1374 17.2862 10.24 17.2511L12.0763 16.6296L12.7951 18.4526C12.835 18.5536 12.9307 18.6211 13.0396 18.6249C13.0423 18.6249 13.0455 18.6249 13.0482 18.6249C13.1534 18.6249 13.2496 18.5643 13.2943 18.4686L14.5817 15.7253L16.3911 17.4218C16.4427 17.4696 16.5091 17.4951 16.5772 17.4951C16.6144 17.4951 16.6516 17.4877 16.6867 17.4723C16.7867 17.4281 16.8505 17.3292 16.8494 17.2203L16.8303 15.3622L18.7925 15.1607C18.8989 15.15 18.9887 15.0783 19.0227 14.9773C19.0568 14.8763 19.0291 14.7646 18.951 14.6918L16.7733 12.6495C19.2786 11.7928 20.9235 11.7773 20.943 11.7773C21.0068 11.7773 21.069 11.755 21.1179 11.7135C21.1881 11.655 22.8224 10.2382 21.5092 7.24534ZM12.3076 8.36896C12.7972 8.51888 13.3512 9.05212 13.8403 9.84799C14.5564 11.0139 14.9302 12.3898 14.7744 13.2537L12.5059 14.5206C12.5067 14.4969 12.5037 14.4704 12.5042 14.4464C12.5037 14.4404 12.5046 14.4346 12.5037 14.4286C12.5196 13.1879 11.9487 11.5202 11.2634 10.4041C11.0024 9.97983 10.634 9.48222 10.1922 9.16217L12.3076 8.36896ZM3.37919 18.0246C2.5158 17.7764 1.44188 16.7141 1.0187 14.4759C0.649272 12.522 2.09687 12.0416 2.29916 11.9843C3.41005 11.8949 4.32189 12.0471 5.02917 12.4284L2.74175 13.453C2.62851 13.5036 2.56418 13.6237 2.58438 13.746C2.60458 13.8683 2.70506 13.9613 2.82787 13.9725C3.49774 14.0336 4.17931 14.6774 4.52381 15.5748C4.86991 16.477 4.77475 17.3415 4.26862 17.8885C4.08946 18.0826 3.75771 18.1336 3.37919 18.0246ZM6.71258 16.5456L5.15856 17.3893C5.34101 16.792 5.30532 16.0918 5.03206 15.3797C4.72902 14.5908 4.21014 13.9746 3.61577 13.6577L5.56048 12.7865C5.68402 12.8923 5.80065 13.0058 5.90555 13.1319C6.6759 14.0575 6.84233 15.3877 6.81083 16.5153C6.77724 16.5192 6.74381 16.5285 6.71258 16.5456ZM7.24369 17.8386C7.4404 16.5398 7.55417 14.2627 6.32501 12.7848C6.16997 12.5984 5.9932 12.4378 5.80626 12.2893C5.78433 12.2646 5.75908 12.2455 5.7306 12.2304C5.26276 11.8794 4.70317 11.6381 4.04709 11.5152C5.54473 11.1006 7.80557 10.4435 9.9838 9.69112C10.2528 9.91541 10.5307 10.2519 10.7993 10.689C11.4902 11.8141 11.9392 13.2823 11.9558 14.3156C9.52576 15.7326 8.02474 17.0492 7.24369 17.8386ZM13.07 17.6658L12.4878 16.1889C12.4346 16.0544 12.2842 15.9847 12.1476 16.031L10.6707 16.5307L11.1778 15.4499C11.1816 15.4419 11.181 15.4334 11.1839 15.4253C11.413 15.2781 11.6539 15.1291 11.9041 14.9788C11.8889 15.0767 11.9222 15.1768 12.0019 15.2378C12.0503 15.275 12.1087 15.2936 12.1672 15.2936C12.2129 15.2936 12.2587 15.2824 12.3001 15.259L13.4184 14.6346L14.1643 15.3339L13.07 17.6658ZM18.1429 14.6801L16.5278 14.846C16.3879 14.8603 16.2816 14.9789 16.2832 15.1192L16.2986 16.5887L13.9174 14.3559L15.1476 13.6689C15.213 13.6322 15.2608 13.57 15.2789 13.4972C15.3019 13.4049 15.3106 13.3049 15.323 13.2068C15.6237 13.0785 15.9151 12.9624 16.1981 12.8561L18.1429 14.6801ZM20.8314 11.235C20.381 11.2512 18.6389 11.3735 16.1508 12.2903C16.1497 12.2908 16.1486 12.291 16.1475 12.2915C15.8885 12.387 15.62 12.4931 15.3453 12.6066C15.2865 11.5887 14.8324 10.4228 14.3039 9.56303C14.1018 9.23381 13.7719 8.76726 13.358 8.39282C16.2589 7.10797 17.8325 5.85871 18.1503 5.59273C18.4863 5.54036 20.1057 5.4016 21.0106 7.46384C22.0217 9.76877 21.0951 10.9597 20.8314 11.235Z" fill="black"/>
<path d="M21.5092 7.24534C20.3301 4.55895 17.9898 5.06746 17.9669 5.07358C17.9233 5.08368 17.8829 5.10441 17.8489 5.13419C17.8321 5.14864 16.1572 6.5975 12.848 8.02183C12.69 7.93271 12.5264 7.85772 12.3538 7.81818C12.3033 7.80648 12.2475 7.8102 12.1975 7.82855L9.41013 8.87402C9.29795 8.91602 9.22618 9.02713 9.23416 9.14675C9.23941 9.22603 9.28576 9.28717 9.34547 9.33372C5.82471 10.5229 2.22675 11.4408 2.19256 11.4493C2.17023 11.4546 -0.00205567 12.0065 0.483865 14.5769C0.952773 17.0581 2.20957 18.2548 3.22873 18.5478C3.40843 18.5993 3.58334 18.6243 3.74974 18.6243C4.09504 18.6243 4.39715 18.5113 4.61698 18.3026L6.77455 17.1313C6.69414 18.0202 6.52278 18.6729 6.51853 18.6881C6.48451 18.8141 6.54405 18.9465 6.66101 19.0039C6.69982 19.0231 6.74076 19.0321 6.78116 19.0321C6.8641 19.0321 6.94544 18.9938 6.9986 18.9242C7.01043 18.9081 7.99457 17.6335 10.3148 16.008L9.90668 16.8774C9.8599 16.9762 9.87691 17.0932 9.94975 17.1745C10.0231 17.2564 10.1374 17.2862 10.24 17.2511L12.0763 16.6296L12.7951 18.4526C12.835 18.5536 12.9307 18.6211 13.0396 18.6249C13.0423 18.6249 13.0455 18.6249 13.0482 18.6249C13.1534 18.6249 13.2496 18.5643 13.2943 18.4686L14.5817 15.7253L16.3911 17.4218C16.4427 17.4696 16.5091 17.4951 16.5772 17.4951C16.6144 17.4951 16.6516 17.4877 16.6867 17.4723C16.7867 17.4281 16.8505 17.3292 16.8494 17.2203L16.8303 15.3622L18.7925 15.1607C18.8989 15.15 18.9887 15.0783 19.0227 14.9773C19.0568 14.8763 19.0291 14.7646 18.951 14.6918L16.7733 12.6495C19.2786 11.7928 20.9235 11.7773 20.943 11.7773C21.0068 11.7773 21.069 11.755 21.1179 11.7135C21.1881 11.655 22.8224 10.2382 21.5092 7.24534ZM12.3076 8.36896C12.7972 8.51888 13.3512 9.05212 13.8403 9.84799C14.5564 11.0139 14.9302 12.3898 14.7744 13.2537L12.5059 14.5206C12.5067 14.4969 12.5037 14.4704 12.5042 14.4464C12.5037 14.4404 12.5046 14.4346 12.5037 14.4286C12.5196 13.1879 11.9487 11.5202 11.2634 10.4041C11.0024 9.97983 10.634 9.48222 10.1922 9.16217L12.3076 8.36896ZM3.37919 18.0246C2.5158 17.7764 1.44188 16.7141 1.0187 14.4759C0.649272 12.522 2.09687 12.0416 2.29916 11.9843C3.41005 11.8949 4.32189 12.0471 5.02917 12.4284L2.74175 13.453C2.62851 13.5036 2.56418 13.6237 2.58438 13.746C2.60458 13.8683 2.70506 13.9613 2.82787 13.9725C3.49774 14.0336 4.17931 14.6774 4.52381 15.5748C4.86991 16.477 4.77475 17.3415 4.26862 17.8885C4.08946 18.0826 3.75771 18.1336 3.37919 18.0246ZM6.71258 16.5456L5.15856 17.3893C5.34101 16.792 5.30532 16.0918 5.03206 15.3797C4.72902 14.5908 4.21014 13.9746 3.61577 13.6577L5.56048 12.7865C5.68402 12.8923 5.80065 13.0058 5.90555 13.1319C6.6759 14.0575 6.84233 15.3877 6.81083 16.5153C6.77724 16.5192 6.74381 16.5285 6.71258 16.5456ZM7.24369 17.8386C7.4404 16.5398 7.55417 14.2627 6.32501 12.7848C6.16997 12.5984 5.9932 12.4378 5.80626 12.2893C5.78433 12.2646 5.75908 12.2455 5.7306 12.2304C5.26276 11.8794 4.70317 11.6381 4.04709 11.5152C5.54473 11.1006 7.80557 10.4435 9.9838 9.69112C10.2528 9.91541 10.5307 10.2519 10.7993 10.689C11.4902 11.8141 11.9392 13.2823 11.9558 14.3156C9.52576 15.7326 8.02474 17.0492 7.24369 17.8386ZM13.07 17.6658L12.4878 16.1889C12.4346 16.0544 12.2842 15.9847 12.1476 16.031L10.6707 16.5307L11.1778 15.4499C11.1816 15.4419 11.181 15.4334 11.1839 15.4253C11.413 15.2781 11.6539 15.1291 11.9041 14.9788C11.8889 15.0767 11.9222 15.1768 12.0019 15.2378C12.0503 15.275 12.1087 15.2936 12.1672 15.2936C12.2129 15.2936 12.2587 15.2824 12.3001 15.259L13.4184 14.6346L14.1643 15.3339L13.07 17.6658ZM18.1429 14.6801L16.5278 14.846C16.3879 14.8603 16.2816 14.9789 16.2832 15.1192L16.2986 16.5887L13.9174 14.3559L15.1476 13.6689C15.213 13.6322 15.2608 13.57 15.2789 13.4972C15.3019 13.4049 15.3106 13.3049 15.323 13.2068C15.6237 13.0785 15.9151 12.9624 16.1981 12.8561L18.1429 14.6801ZM20.8314 11.235C20.381 11.2512 18.6389 11.3735 16.1508 12.2903C16.1497 12.2908 16.1486 12.291 16.1475 12.2915C15.8885 12.387 15.62 12.4931 15.3453 12.6066C15.2865 11.5887 14.8324 10.4228 14.3039 9.56303C14.1018 9.23381 13.7719 8.76726 13.358 8.39282C16.2589 7.10797 17.8325 5.85871 18.1503 5.59273C18.4863 5.54036 20.1057 5.4016 21.0106 7.46384C22.0217 9.76877 21.0951 10.9597 20.8314 11.235Z" stroke="black" stroke-width="0.540129" mask="url(#path-1-outside-1_186_398)"/>
</g>
</g>
<defs>
<clipPath id="clip0_186_398">
<rect width="22.4941" height="23.0897" fill="white" transform="translate(0.450928 0.221069)"/>
</clipPath>
</defs>
</svg>
