<svg width="23" height="23" viewBox="0 0 23 23" fill="none" xmlns="http://www.w3.org/2000/svg">
<g id="material-symbols:headphones">
<path id="Vector" d="M8.57415 19.9734H4.76967C4.24655 19.9734 3.79889 19.7873 3.42669 19.4151C3.05449 19.0429 2.86807 18.5949 2.86743 18.0712V11.4133C2.86743 10.2244 3.09348 9.111 3.54558 8.07301C3.99768 7.03502 4.60766 6.13146 5.37553 5.36232C6.14467 4.59319 7.04823 3.98288 8.08622 3.53142C9.12421 3.07995 10.238 2.85391 11.4275 2.85327C12.6164 2.85327 13.7302 3.07932 14.7688 3.53142C15.8074 3.98352 16.711 4.5935 17.4795 5.36137C18.248 6.13051 18.8583 7.03407 19.3104 8.07206C19.7625 9.11005 19.9882 10.2238 19.9876 11.4133V18.0712C19.9876 18.5943 19.8015 19.0423 19.4293 19.4151C19.0571 19.7879 18.6091 19.974 18.0853 19.9734H14.2809V12.3645H18.0853V11.4133C18.0853 9.55866 17.4395 7.98551 16.1479 6.69389C14.8563 5.40227 13.2828 4.75614 11.4275 4.75551C9.57282 4.75551 7.99967 5.40164 6.70805 6.69389C5.41643 7.98614 4.7703 9.55929 4.76967 11.4133V12.3645H8.57415V19.9734Z" fill="white"/>
</g>
</svg>
