<svg width="24" height="24" viewBox="0 0 24 24" fill="none" xmlns="http://www.w3.org/2000/svg">
<g id="tdesign:user-talk">
<path id="Vector" d="M11.5 4C10.5717 4 9.6815 4.36875 9.02513 5.02513C8.36875 5.6815 8 6.57174 8 7.5C8 8.42826 8.36875 9.3185 9.02513 9.97487C9.6815 10.6313 10.5717 11 11.5 11C12.4283 11 13.3185 10.6313 13.9749 9.97487C14.6313 9.3185 15 8.42826 15 7.5C15 6.57174 14.6313 5.6815 13.9749 5.02513C13.3185 4.36875 12.4283 4 11.5 4ZM6 7.5C6 6.04131 6.57946 4.64236 7.61091 3.61091C8.64236 2.57946 10.0413 2 11.5 2C12.9587 2 14.3576 2.57946 15.3891 3.61091C16.4205 4.64236 17 6.04131 17 7.5C17 8.95869 16.4205 10.3576 15.3891 11.3891C14.3576 12.4205 12.9587 13 11.5 13C10.0413 13 8.64236 12.4205 7.61091 11.3891C6.57946 10.3576 6 8.95869 6 7.5ZM18.983 12.982L19.586 13.78C20.5038 14.9956 21.0001 16.4773 20.9996 18.0005C20.999 19.5237 20.5017 21.0051 19.583 22.22L18.98 23.018L17.385 21.812L17.988 21.014C18.6443 20.1461 18.9996 19.0879 18.9999 17.9998C19.0003 16.9118 18.6457 15.8533 17.99 14.985L17.387 14.187L18.983 12.982ZM8 16C6.93913 16 5.92172 16.4214 5.17157 17.1716C4.42143 17.9217 4 18.9391 4 20H13.05V22H2V20C2 18.4087 2.63214 16.8826 3.75736 15.7574C4.88258 14.6321 6.4087 14 8 14H13V16H8ZM16.19 15.09L16.793 15.889C17.252 16.4967 17.5002 17.2376 17.5 17.9992C17.4998 18.7607 17.2513 19.5015 16.792 20.109L16.188 20.907L14.593 19.701L15.197 18.903C15.3939 18.6426 15.5004 18.325 15.5004 17.9985C15.5004 17.672 15.3939 17.3544 15.197 17.094L14.595 16.296L16.19 15.09Z" fill="#B8B8B8"/>
</g>
</svg>
