<svg width="24" height="24" viewBox="0 0 24 24" fill="none" xmlns="http://www.w3.org/2000/svg">
<g id="Frame" clip-path="url(#clip0_780_1117)">
<g id="Group 58">
<path id="Vector" d="M22.1785 7.6924L22.1348 7.58929L22.0872 7.69066C21.9106 8.06665 21.7178 8.44847 21.5135 8.82941L21.5034 8.84833L21.5101 8.86871C21.7828 9.69538 21.9583 10.5667 22.0053 11.4727H19.9908H19.9633L19.9486 11.4959C19.7087 11.8744 19.4956 12.2003 19.3301 12.4517L19.2792 12.5292H19.3719H22.0062C21.9169 14.2384 21.3999 15.8313 20.5587 17.2118H17.5509C17.8428 16.2268 18.0436 15.1458 18.1562 14.0031L18.158 13.9848L18.1475 13.9697L17.4722 12.995L17.4716 12.9941C17.457 12.974 17.384 12.8669 17.2737 12.7029L17.1884 12.576L17.1822 12.7288C17.1169 14.3511 16.8482 15.8817 16.4126 17.2109H12.5283V12.5283H17.0629H17.1559L17.1046 12.4507C16.9383 12.1994 16.7261 11.8735 16.4862 11.495L16.4715 11.4717H16.444H12.5283V6.78913H13.8748H13.9516L13.9205 6.7189C13.7862 6.41526 13.6868 6.10016 13.6196 5.77256L13.6114 5.73261H13.5706H12.5283V2.065C13.0111 2.16462 13.4773 2.40213 13.9184 2.75137L13.9667 2.78963L13.9941 2.73446C14.2359 2.24912 14.5455 1.8072 14.9302 1.43379L14.9932 1.37271L14.9085 1.34967C13.9807 1.09707 13.0092 0.95 12 0.95C5.89752 0.95 0.95 5.89752 0.95 12C0.95 18.1034 5.89752 23.05 12 23.05C18.1034 23.05 23.05 18.1034 23.05 12C23.05 10.4723 22.7396 9.01655 22.1785 7.6924ZM6.80708 5.73261H4.18172C5.35927 4.26678 6.93461 3.13568 8.74757 2.51136C7.97195 3.32563 7.31012 4.42309 6.80708 5.73261ZM3.44226 6.78913H6.44819C6.03395 8.18826 5.79034 9.77705 5.7472 11.4717H1.99376C2.08307 9.76249 2.60008 8.16778 3.44226 6.78913ZM1.99376 12.5283H5.7472C5.79034 14.2229 6.03396 15.8117 6.44911 17.2109H3.44227C2.59915 15.8304 2.08305 14.2375 1.99376 12.5283ZM6.80803 18.2674C7.31114 19.5771 7.97308 20.6747 8.74884 21.489C6.93482 20.8664 5.3593 19.7351 4.18163 18.2674H6.80803ZM11.4717 21.9351C10.0931 21.653 8.84474 20.2803 7.98259 18.2674H11.4717V21.9351ZM11.4717 17.2109H7.58834C7.1335 15.8249 6.85262 14.2257 6.80391 12.5283H11.4717V17.2109ZM11.4717 11.4717H6.8039C6.85261 9.77336 7.1335 8.17513 7.58834 6.78913H11.4717V11.4717ZM11.4717 5.73261H7.98258C8.84472 3.71876 10.0931 2.34702 11.4717 2.06492V5.73261ZM12.5283 21.9351V18.2674H16.0174C15.1543 20.2813 13.9068 21.653 12.5283 21.9351ZM17.1929 18.2674H19.8202C18.6408 19.735 17.0637 20.8662 15.2515 21.4888C16.0271 20.6753 16.689 19.5778 17.1929 18.2674Z" fill="#B8B8B8" stroke="#B8B8B8" stroke-width="0.1"/>
<path id="Vector_2" d="M14.4363 5.27374C14.4966 5.77878 14.6506 6.24939 14.8878 6.67409C15.9189 9.16104 18.2174 12.4783 18.2174 12.4783C18.2174 12.4783 20.516 9.16104 21.5471 6.67504C21.7843 6.24939 21.9383 5.77878 21.9986 5.27374C22.0273 5.11209 22.0435 4.96191 22.0435 4.82609C22.0435 2.71313 20.3304 1 18.2174 1C16.1045 1 14.3914 2.71313 14.3914 4.82609C14.3914 4.96191 14.4076 5.11209 14.4363 5.27374ZM18.2174 2.91304C19.2734 2.91304 20.1305 3.77009 20.1305 4.82609C20.1305 5.88209 19.2734 6.73913 18.2174 6.73913C17.1614 6.73913 16.3044 5.88209 16.3044 4.82609C16.3044 3.77009 17.1614 2.91304 18.2174 2.91304Z" fill="#B8B8B8"/>
</g>
</g>
<defs>
<clipPath id="clip0_780_1117">
<rect width="24" height="24" fill="white"/>
</clipPath>
</defs>
</svg>
