<svg width="24" height="24" viewBox="0 0 24 24" fill="none" xmlns="http://www.w3.org/2000/svg">
<g id="Frame">
<path id="Vector" d="M10.2075 4.83183L8.29125 6.74808C7.7175 6.90558 7.185 7.19433 6.735 7.59183L5.7375 8.48058C5.355 8.82183 4.85625 9.00933 4.3425 9.00933H3.6V13.8093C4.365 13.8318 5.0925 14.1431 5.63625 14.6868L6.97125 16.0218L7.23375 16.2843L8.24625 17.2968C8.47875 17.5293 8.86125 17.5293 9.09375 17.2968C9.1575 17.2331 9.20625 17.1581 9.2325 17.0793C9.3375 16.7906 9.58125 16.5731 9.88125 16.5056C10.1813 16.4381 10.4963 16.5281 10.7138 16.7493L11.1188 17.1468C11.5538 17.5818 12.2587 17.5818 12.69 17.1468C12.8925 16.9443 13.0013 16.6856 13.0125 16.4193C13.0275 16.0893 13.2225 15.7968 13.5225 15.6543C13.8225 15.5118 14.1713 15.5418 14.4375 15.7331C14.79 15.9843 15.2812 15.9506 15.5963 15.6356C15.9488 15.2831 15.9488 14.7131 15.5963 14.3643L12.7538 11.5218L11.4113 12.7593C10.3875 13.7043 8.81625 13.7193 7.77375 12.7931C6.585 11.7356 6.55875 9.89058 7.71375 8.79933L10.3425 6.31683C11.37 5.34933 12.7275 4.80933 14.1413 4.80933C15.495 4.80933 16.8038 5.30808 17.8125 6.20433L18.9413 7.20933H23.4C23.73 7.20933 24 7.47933 24 7.80933V15.6093C24 16.2731 23.4638 16.8093 22.8 16.8093H21.6C21.1575 16.8093 20.7675 16.5693 20.5613 16.2093H17.3775C17.25 16.4606 17.0813 16.7006 16.8713 16.9106C16.23 17.5518 15.3413 17.8031 14.5087 17.6643C14.3738 17.9381 14.19 18.1931 13.9613 18.4218C12.9375 19.4456 11.3363 19.5468 10.1962 18.7256C9.255 19.5056 7.8525 19.4568 6.97125 18.5718L5.9625 17.5593L5.7 17.2968L4.365 15.9618C4.15875 15.7556 3.88875 15.6356 3.6 15.6131C3.6 16.2731 3.06 16.8093 2.4 16.8093H1.2C0.53625 16.8093 0 16.2731 0 15.6093V7.80933C0 7.47933 0.27 7.20933 0.6 7.20933H4.3425C4.4175 7.20933 4.48875 7.18308 4.54125 7.13433L5.535 6.24933C6.58125 5.32308 7.9275 4.80933 9.32625 4.80933H9.7125C9.8775 4.80933 10.0463 4.81683 10.2075 4.83183ZM20.4 14.4093V9.00933H18.6C18.3787 9.00933 18.165 8.92683 18.0038 8.78058L16.62 7.55058C15.9375 6.94308 15.0563 6.60933 14.1413 6.60933C13.1888 6.60933 12.2738 6.97308 11.58 7.62558L8.95125 10.1081C8.565 10.4756 8.5725 11.0943 8.97 11.4468C9.31875 11.7581 9.8475 11.7506 10.1888 11.4356L12.885 8.94558C13.2488 8.60808 13.8188 8.63058 14.1563 8.99808C14.4938 9.36558 14.4713 9.93183 14.1038 10.2693L14.0738 10.2993L16.8638 13.0893C17.2388 13.4643 17.4825 13.9256 17.5913 14.4056H20.4V14.4093ZM2.4 15.0093C2.4 14.8502 2.33679 14.6976 2.22426 14.5851C2.11174 14.4725 1.95913 14.4093 1.8 14.4093C1.64087 14.4093 1.48826 14.4725 1.37574 14.5851C1.26321 14.6976 1.2 14.8502 1.2 15.0093C1.2 15.1685 1.26321 15.3211 1.37574 15.4336C1.48826 15.5461 1.64087 15.6093 1.8 15.6093C1.95913 15.6093 2.11174 15.5461 2.22426 15.4336C2.33679 15.3211 2.4 15.1685 2.4 15.0093ZM22.2 15.6093C22.3591 15.6093 22.5117 15.5461 22.6243 15.4336C22.7368 15.3211 22.8 15.1685 22.8 15.0093C22.8 14.8502 22.7368 14.6976 22.6243 14.5851C22.5117 14.4725 22.3591 14.4093 22.2 14.4093C22.0409 14.4093 21.8883 14.4725 21.7757 14.5851C21.6632 14.6976 21.6 14.8502 21.6 15.0093C21.6 15.1685 21.6632 15.3211 21.7757 15.4336C21.8883 15.5461 22.0409 15.6093 22.2 15.6093Z" fill="#B8B8B8"/>
</g>
</svg>
