<svg width="24" height="24" viewBox="0 0 24 24" fill="none" xmlns="http://www.w3.org/2000/svg">
<g id="Frame">
<g id="Vector">
<mask id="path-1-outside-1_305_3565" maskUnits="userSpaceOnUse" x="0" y="4" width="24" height="16" fill="black">
<rect fill="white" y="4" width="24" height="16"/>
<path d="M22.9279 7.30118C21.7022 4.50889 19.2697 5.03745 19.2459 5.04381C19.2006 5.05431 19.1586 5.07586 19.1232 5.1068C19.1058 5.12183 17.3649 6.6278 13.9252 8.10829C13.7609 8.01566 13.5909 7.93771 13.4115 7.89661C13.3591 7.88445 13.301 7.88832 13.2491 7.90738L10.3518 8.99407C10.2352 9.03773 10.1606 9.15322 10.1689 9.27756C10.1743 9.35996 10.2225 9.42351 10.2846 9.4719C6.62502 10.708 2.88523 11.662 2.84969 11.6709C2.82648 11.6764 0.568556 12.25 1.07363 14.9218C1.56103 17.5008 2.86737 18.7447 3.92671 19.0492C4.11349 19.1028 4.29529 19.1288 4.46826 19.1288C4.82717 19.1288 5.14119 19.0113 5.36969 18.7944L7.61231 17.5769C7.52873 18.5008 7.35062 19.1793 7.3462 19.1951C7.31084 19.326 7.37273 19.4636 7.4943 19.5233C7.53464 19.5432 7.57719 19.5526 7.61919 19.5526C7.70539 19.5526 7.78994 19.5128 7.8452 19.4404C7.8575 19.4237 8.88043 18.0989 11.2921 16.4093L10.8679 17.3129C10.8193 17.4157 10.837 17.5373 10.9127 17.6218C10.9889 17.7069 11.1078 17.7379 11.2144 17.7014L13.1231 17.0554L13.8702 18.9503C13.9117 19.0553 14.0111 19.1255 14.1244 19.1293C14.1272 19.1293 14.1305 19.1293 14.1332 19.1293C14.2427 19.1293 14.3427 19.0663 14.3891 18.9669L15.7273 16.1154L17.608 17.8788C17.6616 17.9285 17.7307 17.955 17.8014 17.955C17.8401 17.955 17.8788 17.9473 17.9152 17.9313C18.0191 17.8854 18.0854 17.7826 18.0843 17.6693L18.0644 15.738L20.1041 15.5286C20.2146 15.5175 20.308 15.4429 20.3434 15.3379C20.3787 15.2329 20.35 15.1169 20.2688 15.0412L18.0053 12.9184C20.6093 12.0279 22.3191 12.0118 22.3394 12.0118C22.4057 12.0118 22.4703 11.9886 22.5212 11.9455C22.5941 11.8847 24.2928 10.412 22.9279 7.30118ZM13.3635 8.4691C13.8724 8.62494 14.4482 9.17919 14.9566 10.0064C15.701 11.2183 16.0895 12.6484 15.9275 13.5464L13.5696 14.8632C13.5705 14.8386 13.5673 14.8111 13.5678 14.7862C13.5673 14.7799 13.5682 14.7739 13.5673 14.7676C13.5838 13.478 12.9904 11.7446 12.2782 10.5845C12.0068 10.1435 11.6239 9.62625 11.1647 9.29358L13.3635 8.4691ZM4.0831 18.5054C3.18567 18.2474 2.06942 17.1433 1.62955 14.8168C1.24556 12.7859 2.75022 12.2866 2.96049 12.2269C4.11518 12.1341 5.06296 12.2922 5.79813 12.6886L3.42053 13.7536C3.30282 13.8061 3.23596 13.931 3.25696 14.0581C3.27796 14.1852 3.3824 14.2819 3.51005 14.2935C4.20633 14.3571 4.91476 15.0263 5.27285 15.9591C5.63259 16.8968 5.53367 17.7953 5.0076 18.364C4.82137 18.5657 4.47655 18.6187 4.0831 18.5054ZM7.5479 16.9681L5.93262 17.845C6.12226 17.2242 6.08517 16.4964 5.80113 15.7562C5.48615 14.9362 4.94681 14.2957 4.329 13.9664L6.35038 13.0608C6.47879 13.1708 6.60002 13.2887 6.70905 13.4199C7.50977 14.3819 7.68277 15.7645 7.65003 16.9366C7.61511 16.9406 7.58037 16.9503 7.5479 16.9681ZM8.09995 18.312C8.30441 16.962 8.42267 14.5952 7.14506 13.059C6.9839 12.8653 6.80016 12.6983 6.60586 12.5439C6.58306 12.5183 6.55681 12.4985 6.52721 12.4828C6.04093 12.1179 5.45928 11.8671 4.77733 11.7394C6.33401 11.3084 8.68398 10.6254 10.9481 9.84339C11.2277 10.0765 11.5166 10.4263 11.7957 10.8807C12.5139 12.0501 12.9806 13.5762 12.9979 14.6502C10.472 16.123 8.91179 17.4915 8.09995 18.312ZM14.1559 18.1324L13.5508 16.5973C13.4955 16.4575 13.3392 16.3851 13.1971 16.4332L11.662 16.9526L12.1892 15.8292C12.1931 15.8209 12.1925 15.8121 12.1955 15.8036C12.4337 15.6506 12.684 15.4958 12.9441 15.3395C12.9283 15.4413 12.9629 15.5453 13.0457 15.6087C13.096 15.6474 13.1568 15.6667 13.2176 15.6667C13.2651 15.6667 13.3126 15.6551 13.3557 15.6308L14.5181 14.9817L15.2934 15.7087L14.1559 18.1324ZM19.4288 15.029L17.75 15.2014C17.6047 15.2164 17.4942 15.3396 17.4958 15.4855L17.5118 17.0129L15.0368 14.692L16.3155 13.978C16.3834 13.9398 16.4332 13.8752 16.452 13.7995C16.4758 13.7036 16.4849 13.5996 16.4977 13.4977C16.8103 13.3643 17.1132 13.2436 17.4074 13.1332L19.4288 15.029ZM22.2233 11.4482C21.7552 11.465 19.9444 11.5921 17.3582 12.5451C17.3571 12.5456 17.3559 12.5458 17.3548 12.5463C17.0855 12.6456 16.8064 12.7558 16.521 12.8738C16.4598 11.8158 15.9878 10.6039 15.4385 9.71024C15.2284 9.36804 14.8855 8.8831 14.4553 8.4939C17.4705 7.1584 19.1062 5.85989 19.4366 5.58342C19.7858 5.52899 21.469 5.38476 22.4095 7.5283C23.4606 9.9241 22.4974 11.1619 22.2233 11.4482Z"/>
</mask>
<path d="M22.9279 7.30118C21.7022 4.50889 19.2697 5.03745 19.2459 5.04381C19.2006 5.05431 19.1586 5.07586 19.1232 5.1068C19.1058 5.12183 17.3649 6.6278 13.9252 8.10829C13.7609 8.01566 13.5909 7.93771 13.4115 7.89661C13.3591 7.88445 13.301 7.88832 13.2491 7.90738L10.3518 8.99407C10.2352 9.03773 10.1606 9.15322 10.1689 9.27756C10.1743 9.35996 10.2225 9.42351 10.2846 9.4719C6.62502 10.708 2.88523 11.662 2.84969 11.6709C2.82648 11.6764 0.568556 12.25 1.07363 14.9218C1.56103 17.5008 2.86737 18.7447 3.92671 19.0492C4.11349 19.1028 4.29529 19.1288 4.46826 19.1288C4.82717 19.1288 5.14119 19.0113 5.36969 18.7944L7.61231 17.5769C7.52873 18.5008 7.35062 19.1793 7.3462 19.1951C7.31084 19.326 7.37273 19.4636 7.4943 19.5233C7.53464 19.5432 7.57719 19.5526 7.61919 19.5526C7.70539 19.5526 7.78994 19.5128 7.8452 19.4404C7.8575 19.4237 8.88043 18.0989 11.2921 16.4093L10.8679 17.3129C10.8193 17.4157 10.837 17.5373 10.9127 17.6218C10.9889 17.7069 11.1078 17.7379 11.2144 17.7014L13.1231 17.0554L13.8702 18.9503C13.9117 19.0553 14.0111 19.1255 14.1244 19.1293C14.1272 19.1293 14.1305 19.1293 14.1332 19.1293C14.2427 19.1293 14.3427 19.0663 14.3891 18.9669L15.7273 16.1154L17.608 17.8788C17.6616 17.9285 17.7307 17.955 17.8014 17.955C17.8401 17.955 17.8788 17.9473 17.9152 17.9313C18.0191 17.8854 18.0854 17.7826 18.0843 17.6693L18.0644 15.738L20.1041 15.5286C20.2146 15.5175 20.308 15.4429 20.3434 15.3379C20.3787 15.2329 20.35 15.1169 20.2688 15.0412L18.0053 12.9184C20.6093 12.0279 22.3191 12.0118 22.3394 12.0118C22.4057 12.0118 22.4703 11.9886 22.5212 11.9455C22.5941 11.8847 24.2928 10.412 22.9279 7.30118ZM13.3635 8.4691C13.8724 8.62494 14.4482 9.17919 14.9566 10.0064C15.701 11.2183 16.0895 12.6484 15.9275 13.5464L13.5696 14.8632C13.5705 14.8386 13.5673 14.8111 13.5678 14.7862C13.5673 14.7799 13.5682 14.7739 13.5673 14.7676C13.5838 13.478 12.9904 11.7446 12.2782 10.5845C12.0068 10.1435 11.6239 9.62625 11.1647 9.29358L13.3635 8.4691ZM4.0831 18.5054C3.18567 18.2474 2.06942 17.1433 1.62955 14.8168C1.24556 12.7859 2.75022 12.2866 2.96049 12.2269C4.11518 12.1341 5.06296 12.2922 5.79813 12.6886L3.42053 13.7536C3.30282 13.8061 3.23596 13.931 3.25696 14.0581C3.27796 14.1852 3.3824 14.2819 3.51005 14.2935C4.20633 14.3571 4.91476 15.0263 5.27285 15.9591C5.63259 16.8968 5.53367 17.7953 5.0076 18.364C4.82137 18.5657 4.47655 18.6187 4.0831 18.5054ZM7.5479 16.9681L5.93262 17.845C6.12226 17.2242 6.08517 16.4964 5.80113 15.7562C5.48615 14.9362 4.94681 14.2957 4.329 13.9664L6.35038 13.0608C6.47879 13.1708 6.60002 13.2887 6.70905 13.4199C7.50977 14.3819 7.68277 15.7645 7.65003 16.9366C7.61511 16.9406 7.58037 16.9503 7.5479 16.9681ZM8.09995 18.312C8.30441 16.962 8.42267 14.5952 7.14506 13.059C6.9839 12.8653 6.80016 12.6983 6.60586 12.5439C6.58306 12.5183 6.55681 12.4985 6.52721 12.4828C6.04093 12.1179 5.45928 11.8671 4.77733 11.7394C6.33401 11.3084 8.68398 10.6254 10.9481 9.84339C11.2277 10.0765 11.5166 10.4263 11.7957 10.8807C12.5139 12.0501 12.9806 13.5762 12.9979 14.6502C10.472 16.123 8.91179 17.4915 8.09995 18.312ZM14.1559 18.1324L13.5508 16.5973C13.4955 16.4575 13.3392 16.3851 13.1971 16.4332L11.662 16.9526L12.1892 15.8292C12.1931 15.8209 12.1925 15.8121 12.1955 15.8036C12.4337 15.6506 12.684 15.4958 12.9441 15.3395C12.9283 15.4413 12.9629 15.5453 13.0457 15.6087C13.096 15.6474 13.1568 15.6667 13.2176 15.6667C13.2651 15.6667 13.3126 15.6551 13.3557 15.6308L14.5181 14.9817L15.2934 15.7087L14.1559 18.1324ZM19.4288 15.029L17.75 15.2014C17.6047 15.2164 17.4942 15.3396 17.4958 15.4855L17.5118 17.0129L15.0368 14.692L16.3155 13.978C16.3834 13.9398 16.4332 13.8752 16.452 13.7995C16.4758 13.7036 16.4849 13.5996 16.4977 13.4977C16.8103 13.3643 17.1132 13.2436 17.4074 13.1332L19.4288 15.029ZM22.2233 11.4482C21.7552 11.465 19.9444 11.5921 17.3582 12.5451C17.3571 12.5456 17.3559 12.5458 17.3548 12.5463C17.0855 12.6456 16.8064 12.7558 16.521 12.8738C16.4598 11.8158 15.9878 10.6039 15.4385 9.71024C15.2284 9.36804 14.8855 8.8831 14.4553 8.4939C17.4705 7.1584 19.1062 5.85989 19.4366 5.58342C19.7858 5.52899 21.469 5.38476 22.4095 7.5283C23.4606 9.9241 22.4974 11.1619 22.2233 11.4482Z" fill="#B8B8B8"/>
<path d="M22.9279 7.30118C21.7022 4.50889 19.2697 5.03745 19.2459 5.04381C19.2006 5.05431 19.1586 5.07586 19.1232 5.1068C19.1058 5.12183 17.3649 6.6278 13.9252 8.10829C13.7609 8.01566 13.5909 7.93771 13.4115 7.89661C13.3591 7.88445 13.301 7.88832 13.2491 7.90738L10.3518 8.99407C10.2352 9.03773 10.1606 9.15322 10.1689 9.27756C10.1743 9.35996 10.2225 9.42351 10.2846 9.4719C6.62502 10.708 2.88523 11.662 2.84969 11.6709C2.82648 11.6764 0.568556 12.25 1.07363 14.9218C1.56103 17.5008 2.86737 18.7447 3.92671 19.0492C4.11349 19.1028 4.29529 19.1288 4.46826 19.1288C4.82717 19.1288 5.14119 19.0113 5.36969 18.7944L7.61231 17.5769C7.52873 18.5008 7.35062 19.1793 7.3462 19.1951C7.31084 19.326 7.37273 19.4636 7.4943 19.5233C7.53464 19.5432 7.57719 19.5526 7.61919 19.5526C7.70539 19.5526 7.78994 19.5128 7.8452 19.4404C7.8575 19.4237 8.88043 18.0989 11.2921 16.4093L10.8679 17.3129C10.8193 17.4157 10.837 17.5373 10.9127 17.6218C10.9889 17.7069 11.1078 17.7379 11.2144 17.7014L13.1231 17.0554L13.8702 18.9503C13.9117 19.0553 14.0111 19.1255 14.1244 19.1293C14.1272 19.1293 14.1305 19.1293 14.1332 19.1293C14.2427 19.1293 14.3427 19.0663 14.3891 18.9669L15.7273 16.1154L17.608 17.8788C17.6616 17.9285 17.7307 17.955 17.8014 17.955C17.8401 17.955 17.8788 17.9473 17.9152 17.9313C18.0191 17.8854 18.0854 17.7826 18.0843 17.6693L18.0644 15.738L20.1041 15.5286C20.2146 15.5175 20.308 15.4429 20.3434 15.3379C20.3787 15.2329 20.35 15.1169 20.2688 15.0412L18.0053 12.9184C20.6093 12.0279 22.3191 12.0118 22.3394 12.0118C22.4057 12.0118 22.4703 11.9886 22.5212 11.9455C22.5941 11.8847 24.2928 10.412 22.9279 7.30118ZM13.3635 8.4691C13.8724 8.62494 14.4482 9.17919 14.9566 10.0064C15.701 11.2183 16.0895 12.6484 15.9275 13.5464L13.5696 14.8632C13.5705 14.8386 13.5673 14.8111 13.5678 14.7862C13.5673 14.7799 13.5682 14.7739 13.5673 14.7676C13.5838 13.478 12.9904 11.7446 12.2782 10.5845C12.0068 10.1435 11.6239 9.62625 11.1647 9.29358L13.3635 8.4691ZM4.0831 18.5054C3.18567 18.2474 2.06942 17.1433 1.62955 14.8168C1.24556 12.7859 2.75022 12.2866 2.96049 12.2269C4.11518 12.1341 5.06296 12.2922 5.79813 12.6886L3.42053 13.7536C3.30282 13.8061 3.23596 13.931 3.25696 14.0581C3.27796 14.1852 3.3824 14.2819 3.51005 14.2935C4.20633 14.3571 4.91476 15.0263 5.27285 15.9591C5.63259 16.8968 5.53367 17.7953 5.0076 18.364C4.82137 18.5657 4.47655 18.6187 4.0831 18.5054ZM7.5479 16.9681L5.93262 17.845C6.12226 17.2242 6.08517 16.4964 5.80113 15.7562C5.48615 14.9362 4.94681 14.2957 4.329 13.9664L6.35038 13.0608C6.47879 13.1708 6.60002 13.2887 6.70905 13.4199C7.50977 14.3819 7.68277 15.7645 7.65003 16.9366C7.61511 16.9406 7.58037 16.9503 7.5479 16.9681ZM8.09995 18.312C8.30441 16.962 8.42267 14.5952 7.14506 13.059C6.9839 12.8653 6.80016 12.6983 6.60586 12.5439C6.58306 12.5183 6.55681 12.4985 6.52721 12.4828C6.04093 12.1179 5.45928 11.8671 4.77733 11.7394C6.33401 11.3084 8.68398 10.6254 10.9481 9.84339C11.2277 10.0765 11.5166 10.4263 11.7957 10.8807C12.5139 12.0501 12.9806 13.5762 12.9979 14.6502C10.472 16.123 8.91179 17.4915 8.09995 18.312ZM14.1559 18.1324L13.5508 16.5973C13.4955 16.4575 13.3392 16.3851 13.1971 16.4332L11.662 16.9526L12.1892 15.8292C12.1931 15.8209 12.1925 15.8121 12.1955 15.8036C12.4337 15.6506 12.684 15.4958 12.9441 15.3395C12.9283 15.4413 12.9629 15.5453 13.0457 15.6087C13.096 15.6474 13.1568 15.6667 13.2176 15.6667C13.2651 15.6667 13.3126 15.6551 13.3557 15.6308L14.5181 14.9817L15.2934 15.7087L14.1559 18.1324ZM19.4288 15.029L17.75 15.2014C17.6047 15.2164 17.4942 15.3396 17.4958 15.4855L17.5118 17.0129L15.0368 14.692L16.3155 13.978C16.3834 13.9398 16.4332 13.8752 16.452 13.7995C16.4758 13.7036 16.4849 13.5996 16.4977 13.4977C16.8103 13.3643 17.1132 13.2436 17.4074 13.1332L19.4288 15.029ZM22.2233 11.4482C21.7552 11.465 19.9444 11.5921 17.3582 12.5451C17.3571 12.5456 17.3559 12.5458 17.3548 12.5463C17.0855 12.6456 16.8064 12.7558 16.521 12.8738C16.4598 11.8158 15.9878 10.6039 15.4385 9.71024C15.2284 9.36804 14.8855 8.8831 14.4553 8.4939C17.4705 7.1584 19.1062 5.85989 19.4366 5.58342C19.7858 5.52899 21.469 5.38476 22.4095 7.5283C23.4606 9.9241 22.4974 11.1619 22.2233 11.4482Z" stroke="#B8B8B8" stroke-width="0.561423" mask="url(#path-1-outside-1_305_3565)"/>
</g>
</g>
</svg>
