<svg width="20" height="20" viewBox="0 0 20 20" fill="none" xmlns="http://www.w3.org/2000/svg">
<path id="Vector" d="M9.99988 0C8.02207 0 6.08867 0.58649 4.44418 1.6853C2.79969 2.78412 1.51796 4.3459 0.761087 6.17317C0.00421077 8.00043 -0.193823 10.0111 0.19203 11.9509C0.577882 13.8907 1.53029 15.6725 2.92881 17.0711C4.32734 18.4696 6.10917 19.422 8.04898 19.8079C9.98879 20.1937 11.9995 19.9957 13.8267 19.2388C15.654 18.4819 17.2158 17.2002 18.3146 15.5557C19.4134 13.9112 19.9999 11.9778 19.9999 10C19.9999 8.68678 19.7412 7.38642 19.2387 6.17317C18.7361 4.95991 17.9995 3.85752 17.0709 2.92893C16.1424 2.00035 15.04 1.26375 13.8267 0.761205C12.6135 0.258658 11.3131 0 9.99988 0ZM10.9999 17.93V17C10.9999 16.7348 10.8945 16.4804 10.707 16.2929C10.5195 16.1054 10.2651 16 9.99988 16C9.73467 16 9.48031 16.1054 9.29278 16.2929C9.10524 16.4804 8.99988 16.7348 8.99988 17V17.93C7.23986 17.7068 5.60396 16.9049 4.34947 15.6504C3.09498 14.3959 2.29308 12.76 2.06988 11H2.99988C3.2651 11 3.51945 10.8946 3.70699 10.7071C3.89453 10.5196 3.99988 10.2652 3.99988 10C3.99988 9.73478 3.89453 9.48043 3.70699 9.29289C3.51945 9.10536 3.2651 9 2.99988 9H2.06988C2.29308 7.23998 3.09498 5.60408 4.34947 4.34959C5.60396 3.0951 7.23986 2.29319 8.99988 2.07V3C8.99988 3.26522 9.10524 3.51957 9.29278 3.70711C9.48031 3.89464 9.73467 4 9.99988 4C10.2651 4 10.5195 3.89464 10.707 3.70711C10.8945 3.51957 10.9999 3.26522 10.9999 3V2.07C12.7599 2.29319 14.3958 3.0951 15.6503 4.34959C16.9048 5.60408 17.7067 7.23998 17.9299 9H16.9999C16.7347 9 16.4803 9.10536 16.2928 9.29289C16.1052 9.48043 15.9999 9.73478 15.9999 10C15.9999 10.2652 16.1052 10.5196 16.2928 10.7071C16.4803 10.8946 16.7347 11 16.9999 11H17.9299C17.7067 12.76 16.9048 14.3959 15.6503 15.6504C14.3958 16.9049 12.7599 17.7068 10.9999 17.93ZM13.1399 5.55L8.13988 7.67C7.90679 7.77099 7.72088 7.95691 7.61988 8.19L5.49988 13.19C5.42112 13.3734 5.39904 13.5761 5.43646 13.7722C5.47389 13.9682 5.56911 14.1485 5.70988 14.29C5.89451 14.4784 6.14611 14.5862 6.40988 14.59C6.54825 14.5901 6.6849 14.5594 6.80988 14.5L11.8099 12.38C12.043 12.279 12.2289 12.0931 12.3299 11.86L14.4499 6.86C14.5272 6.67676 14.548 6.47463 14.5099 6.27946C14.4717 6.08429 14.3762 5.90493 14.2356 5.7643C14.095 5.62368 13.9156 5.52818 13.7204 5.49001C13.5252 5.45183 13.3231 5.47272 13.1399 5.55ZM10.6499 10.65L8.36988 11.65L9.36988 9.37L11.6499 8.37L10.6499 10.65Z" fill="#B8B8B8"/>
</svg>
